<?xml version="1.0" encoding="utf-8"?>
<!-- Generator: Adobe Illustrator 26.3.1, SVG Export Plug-In . SVG Version: 6.00 Build 0)  -->
<svg version="1.1" xmlns="http://www.w3.org/2000/svg" xmlns:xlink="http://www.w3.org/1999/xlink" x="0px" y="0px"
	 viewBox="0 0 595.28 841.89" style="enable-background:new 0 0 595.28 841.89;" xml:space="preserve">
<style type="text/css">
	.st0{fill:url(#SVGID_1_);stroke:#0D318C;stroke-width:8;stroke-miterlimit:10;}
	.st1{fill:none;stroke:#0D318C;stroke-width:8;stroke-miterlimit:10;}
</style>
<g id="レイヤー_1">
	<linearGradient id="SVGID_1_" gradientUnits="userSpaceOnUse" x1="142.1538" y1="372.6357" x2="473.7559" y2="372.6357">
		<stop  offset="0.132" style="stop-color:#000000"/>
		<stop  offset="0.6624" style="stop-color:#006934"/>
	</linearGradient>
	<path class="st0" d="M154.72,378.54l-9.97,9.58c-1.74-4.53-2.6-8.91-2.6-13.14c0-10.49,4.55-18.96,13.65-25.39
		c7.62-5.42,20.65-8.12,39.1-8.12c3.13,0,5.88,0.06,8.25,0.19c6.56,0.42,9.92,0.63,10.09,0.63h4.44c-3.3,5.16-4.95,15.6-4.95,31.33
		l0.06,3.3l0.25,7.29c0,8.75,1.08,17.72,3.24,26.89c0.85,3.55,1.67,5.83,2.48,6.85c0.8,1.02,2.2,1.52,4.19,1.52
		c2.16,0,4.61-0.7,7.36-2.09c0.3,0.72,0.44,1.31,0.44,1.78c0,1.06-0.83,1.97-2.48,2.73l-2.98,1.46l-15.62,6.79
		c-3.47-10.71-5.56-21.92-6.28-33.64l-4.82,3.36h-21.33c-3.89,9.9-9.23,16.97-16,21.2l13.14,0.63l-6.86,7.24l-25.33-0.89l8.44-7.62
		l6.35,0.38c2.88-2.11,5.33-5.08,7.36-8.91c2.03-3.83,5.06-11.24,9.08-22.23l1.9-5.26c3.89-10.61,7.6-18.34,11.11-23.18
		c3.51-4.84,8.29-8.83,14.35-11.96c-6.64-1.23-13.65-1.84-21.01-1.84c-18.75,0-28.12,6.33-28.12,18.98
		C151.68,370.73,152.69,374.77,154.72,378.54z M203.28,393.01c-0.59-7.35-0.89-13.31-0.89-17.87c0-2.32,0.04-4.23,0.13-5.7
		l0.51-7.35c0.34-5.03,0.8-8.87,1.4-11.54c-8.29,5.07-15.11,15.42-20.44,31.06c-1.52,4.52-2.41,7.12-2.67,7.8l-1.46,3.61H203.28z
		 M250.69,393.8c4.58-7.96,9.64-14.44,15.2-19.44c5.55-5,10.45-7.5,14.69-7.5c6.1,0,9.16,5.19,9.16,15.57
		c0,12.71-4.03,23.56-12.1,32.57c-8.07,9-17.79,13.5-29.18,13.5c-1.44,0-2.71-0.06-3.81-0.19l-5.14-0.51c-0.3,0-1.1-0.04-2.41-0.13
		c0.93-3.22,1.59-6.6,1.97-10.16l6.07-54.79c1.48-13.18,6.35-24.4,14.61-33.68c8.26-9.28,17.49-13.92,27.7-13.92
		c2.12,0,4.15,0.23,6.1,0.7l-9.34,9.14c-2.41-0.72-4.68-1.08-6.8-1.08c-12.62,0-20.01,9.83-22.17,29.49L250.69,393.8z
		 M247.97,418.92c3.93,2.16,7.85,3.23,11.78,3.23c5.83,0,10.56-3.37,14.19-10.11c3.63-6.74,5.45-15.52,5.45-26.34
		c0-6.3-1.71-9.45-5.13-9.45c-3.8,0-8.26,2.85-13.37,8.56c-6.93,7.73-10.98,16.82-12.16,27.26L247.97,418.92z M311.57,429.26
		c-9.52,0-14.28-6.31-14.28-18.92c0-10.16,3.72-19.94,11.17-29.36c7.45-9.42,15.17-14.12,23.17-14.12c9.65,0,14.47,6.31,14.47,18.92
		c0,10.2-3.72,20-11.17,29.39S319.7,429.26,311.57,429.26z M319.25,422.15c4.87,0,8.94-2.71,12.22-8.12
		c3.28-5.42,4.92-12.17,4.92-20.25c0-13.2-4.1-19.8-12.31-19.8c-4.82,0-8.88,2.72-12.16,8.16c-3.28,5.44-4.92,12.18-4.92,20.22
		C307,415.55,311.09,422.15,319.25,422.15z M399.21,402.66c-4.83,7.41-10.27,13.69-16.33,18.85c-6.06,5.16-10.99,7.74-14.8,7.74
		c-4.19,0-6.29-2.79-6.29-8.37c0-2.07,0.28-5.47,0.83-10.21l2.28-20.8c0.04-0.3,0.15-1.52,0.32-3.68l0.38-4.12
		c0.13-1.23,0.19-2.33,0.19-3.3c0-2.45-0.7-3.68-2.09-3.68c-3.21,0-6.68,3.6-10.4,10.79c-0.8-0.63-1.21-1.31-1.21-2.03
		c0-2.62,2.34-6.11,7.02-10.47c4.68-4.36,8.39-6.54,11.15-6.54c3.51,0,5.27,2.41,5.27,7.24c0,1.14-0.08,2.48-0.25,4l-0.57,4.89
		l-0.56,5.33l-1.98,18.15c-0.34,3.09-0.51,6.22-0.51,9.39c0,2.92,1.08,4.38,3.23,4.38c4.77,0,10.15-3.94,16.17-11.81
		c6.01-7.87,9.56-15.66,10.66-23.36l2.21-15.04l10.28-3.49c-1.19,4.9-2.07,9.28-2.67,13.12l-3.83,26.5
		c-0.21,1.61-0.38,2.96-0.51,4.06l-0.45,3.49c-0.26,2.16-0.38,3.68-0.38,4.56c0,1.82,0.51,2.73,1.52,2.73
		c3.6,0,7.26-3.96,10.98-11.87c1.14,0.68,1.71,1.35,1.71,2.03c0,1.48-1.84,4.47-5.53,8.95c-4.96,6.09-9.55,9.14-13.78,9.14
		c-3.09,0-4.64-2.07-4.64-6.22c0-1.31,0.15-3.07,0.45-5.27l0.71-5.08c0.39-2.75,0.65-4.61,0.78-5.59L399.21,402.66z M445.97,375.87
		l-3.07,28.06c-0.55,5.04-0.83,8.76-0.83,11.17c0,4.78,1.62,7.17,4.87,7.17c3.5,0,7.13-2.88,10.88-8.63
		c0.63,0.8,0.95,1.52,0.95,2.16c0,2.37-2.08,5.21-6.25,8.51s-7.75,4.95-10.76,4.95c-6.01,0-9.01-3.85-9.01-11.55
		c0-2.83,0.36-7.43,1.08-13.77l3.04-28.06h-13.33l7.39-7.36h6.76l1.34-11.55l9.35-3.11l-1.54,14.66h26.92l-7.44,7.36H445.97z"/>
</g>
<g id="レイヤー_2">
	<path class="st1" d="M158.64,426c0,0,38.76-86.38,50.5-80.18c11.74,6.2-67.77-21.26-61.57,34.33"/>
	<path class="st1" d="M209.14,345.83l5.09,73.97l71.98-101.66c0,0-27.24,2.19-33.67,26.23c-2.14,8-5.2,33.77-7.37,53.68
		c-1.52,13.98-2.6,25.07-2.6,25.07s18.83,13.29,39.42-18.38c0,0,8.64-39.35-3.77-32.96c-12.4,6.39-36.77,26.09-35.88,27.42
		c0.8,1.2,70.25-23.97,83.69-28.86c1.44-0.52,2.24-0.82,2.24-0.82s26.8,21.71,9.3,39.2c-17.5,17.5-23.1,23.77-30.6,12.22
		s0.81-58.06,27.94-50.09c27.13,7.97,18.33,15.05,18.33,15.05s12.9-20.38,17.44-14.09s-10.41,49.14-1.99,50.34
		c8.42,1.2,14.64-0.66,24.08-13.77c9.44-13.11,17.87-36.57,15.69-37.87c-2.19-1.3-5.39,53.18-5.39,53.18s4.41,8.33,16.18-12.25
		s9.56-38.97,9.56-38.97h39.34l-24.39-16.06l-4.9,69.24c0,0,9.44,3.68,18.14-8.95"/>
</g>
</svg>
